PathFileType	4	(X/Y/Z)	C:/Users/opensim2020/Desktop/walking_exp_matlab/subject02_walking09_straight_03.trc																																																																																																																												
DataRate	CameraRate	NumFrames	NumMarkers	Units	OrigDataRate	OrigDataStartFrame	OrigNumFrames																																																																																																																								
100	100	7	42	mm	100	2178	262																																																																																																																								
Frame#	Time	LFHD			RFHD			LBHD			RBHD			C7			T10			CLAV			STRN			RBAK			LSHO			LUPA			LELB			LFRM			LWRA			LWRB			LFIN			RSHO			RUPA			RELB			RFRM			RWRA			RWRB			RFIN			LASI			RASI			LPSI			RPSI			LTHI			LKNE			LTIB			LANK			LHEE			LTOE			RTHI			RKNE			RTIB			RANK			RHEE			RTOE			*39			*40			*41		
		X1	Y1	Z1	X2	Y2	Z2	X3	Y3	Z3	X4	Y4	Z4	X5	Y5	Z5	X6	Y6	Z6	X7	Y7	Z7	X8	Y8	Z8	X9	Y9	Z9	X10	Y10	Z10	X11	Y11	Z11	X12	Y12	Z12	X13	Y13	Z13	X14	Y14	Z14	X15	Y15	Z15	X16	Y16	Z16	X17	Y17	Z17	X18	Y18	Z18	X19	Y19	Z19	X20	Y20	Z20	X21	Y21	Z21	X22	Y22	Z22	X23	Y23	Z23	X24	Y24	Z24	X25	Y25	Z25	X26	Y26	Z26	X27	Y27	Z27	X28	Y28	Z28	X29	Y29	Z29	X30	Y30	Z30	X31	Y31	Z31	X32	Y32	Z32	X33	Y33	Z33	X34	Y34	Z34	X35	Y35	Z35	X36	Y36	Z36	X37	Y37	Z37	X38	Y38	Z38	X39	Y39	Z39	X40	Y40	Z40	X41	Y41	Z41	X42	Y42	Z42
																																																																																																																															
1	0	-915.09314	1729.00537	-1086.89673	-935.73358	1705.76428	-943.32251	-1026.17688	1636.47156	-1115.36792	-1062.39648	1610.3103	-979.83221	-1083.70056	1506.69116	-1053.14233	-1154.53198	1236.48071	-1055.40601	-946.61029	1431.56104	-1051.80005	-907.8302	1255.19812	-1045.50134	-1157.67383	1336.95874	-998.88879	-992.57758	1482.42065	-1225.27686	-977.8587	1289.71692	-1326.23901	-953.16229	1151.60876	-1352.77222	-907.31274	1027.86731	-1366.99548	-826.28754	921.51276	-1328.13574	-864.70862	912.6441	-1369.34399	-825.48798	859.66492	-1372.14856	-1023.26569	1462.96082	-860.61176	-1077.44434	1272.65234	-788.82996	-1078.25	1125.20178	-776.72247	-1052.46118	1007.58899	-756.40082	-997.65356	882.95605	-770.54462	-1049.96362	877.36261	-747.86267	-1011.74634	815.4281	-740.55145	-937.23468	961.08044	-1183.43689	-942.0343	953.49921	-926.7959	-1146.1145	1016.67316	-1103.40503	-1154.68005	1014.29205	-989.34265	-1059.48022	662.42841	-1234.15332	-1132.67847	469.24591	-1207.41833	-1227.30298	297.25046	-1206.40283	-1263.10242	73.89448	-1176.12927	-1297.5166	48.10846	-1122.51086	-1113.53174	26.4593	-1208.40637	-963.78052	660.96588	-837.90289	-877.02087	471.90091	-863.72174	-848.93689	289.00604	-841.06604	-792.46582	101.77051	-856.83582	-798.39056	37.38079	-913.27502	-632.75385	89.84903	-829.05475	-1036.03418	1776.79175	-1012.5918	2845.12598	1034.05432	-3360.35156	NaN	NaN	NaN
2	0.01	-909.08942	1728.50647	-1083.51001	-929.9024	1705.03406	-939.98077	-1019.84619	1635.6604	-1112.24097	-1056.58167	1609.35071	-976.77496	-1076.83447	1505.81116	-1050.55322	-1147.69556	1235.78601	-1053.42273	-939.85559	1430.84497	-1048.87671	-901.0636	1254.43677	-1042.98975	-1151.12537	1335.99768	-996.75391	-985.2428	1482.04968	-1222.40149	-970.02606	1289.32996	-1323.20972	-945.24567	1151.38452	-1349.74109	-899.44141	1027.34753	-1363.84314	-818.76135	921.04401	-1324.5741	-857.03625	912.0517	-1366.08191	-817.92291	859.10724	-1368.97253	-1016.79266	1461.60193	-857.73187	-1071.71216	1271.25378	-786.73206	-1073.03149	1123.80078	-774.94965	-1048.59363	1006.21545	-754.76514	-994.02979	881.08496	-768.83429	-1046.51074	875.70575	-746.53778	-1008.20447	813.52838	-738.9198	-930.80463	960.07233	-1181.76074	-934.85059	952.80072	-924.99011	-1139.3689	1015.76001	-1101.44287	-1148.00806	1013.56171	-987.46814	-1054.27112	661.97614	-1232.91357	-1127.90918	469.03723	-1206.49365	-1224.27271	297.99976	-1205.89612	-1262.62073	75.03862	-1176.30518	-1297.36292	49.70604	-1122.62683	-1113.48254	26.41717	-1208.51575	-954.22162	661.46967	-835.47858	-869.57556	471.38385	-862.11176	-844.74457	287.68356	-840.63879	-791.09955	99.74452	-857.27484	-797.41174	35.61226	-914.10345	-632.32654	85.29235	-827.70959	-1030.37476	1775.81128	-1009.30829	2845.83276	1034.24426	-3357.32617	NaN	NaN	NaN
3	0.02	-903.1026	1728.1394	-1079.94531	-923.98621	1704.42322	-936.42377	-1013.47229	1634.89905	-1108.95862	-1049.96301	1608.26416	-973.57312	-1070.05322	1505.10559	-1047.7395	-1141.00854	1235.29419	-1051.29419	-933.28131	1430.23621	-1045.94617	-894.27386	1253.74329	-1040.40417	-1144.42639	1335.35852	-994.48633	-977.66791	1481.75452	-1219.39026	-962.18719	1288.92566	-1319.9845	-937.34595	1151.03174	-1346.01538	-891.87811	1027.09412	-1360.45349	-811.41687	920.51984	-1321.16895	-849.61292	911.70599	-1362.77576	-810.48212	858.43042	-1365.69556	-1011.22931	1460.50171	-854.93457	-1066.68323	1270.10498	-784.4151	-1067.74194	1122.4989	-772.9884	-1043.51758	1004.52264	-752.91821	-990.62598	879.2735	-766.99365	-1043.06445	874.10455	-744.85693	-1005.05841	811.80121	-737.13568	-924.03857	959.11987	-1179.88562	-927.43988	952.39032	-923.03827	-1132.3855	1014.83649	-1099.31299	-1141.04077	1012.82007	-985.41095	-1048.74512	661.57422	-1231.43091	-1122.83508	468.89871	-1205.5282	-1220.97656	298.9314	-1205.34045	-1262.02869	76.39662	-1176.45154	-1296.9928	51.30208	-1122.82043	-1113.27161	26.52501	-1208.59058	-944.54718	661.95898	-832.98285	-862.37933	470.71149	-860.43213	-840.96423	286.2319	-839.93878	-790.87738	97.55952	-857.93091	-797.76788	33.79808	-915.37445	-632.83893	80.27869	-826.70593	-1024.67578	1774.9364	-1005.91455	2845.15576	1034.34888	-3360.23877	NaN	NaN	NaN
4	0.03	-897.02673	1727.78516	-1075.9375	-918.04803	1703.91699	-932.82666	-1007.02917	1634.23047	-1105.49048	-1043.81909	1607.07788	-970.32098	-1063.27625	1504.40308	-1044.7804	-1133.99866	1234.56506	-1049.00732	-926.14734	1429.55286	-1042.73706	-887.30981	1253.13477	-1037.62549	-1137.703	1334.57971	-992.08545	-970.21844	1481.53125	-1216.27271	-954.52246	1288.82349	-1316.453	-929.89368	1150.71887	-1342.3634	-884.46045	1026.68994	-1356.97705	-804.35901	919.98206	-1317.51599	-842.52863	911.28064	-1359.14026	-803.46716	858.03613	-1362.20789	-1004.26666	1459.21423	-851.8551	-1060.15881	1268.66443	-781.97119	-1061.89648	1121.20471	-771.05377	-1039.09314	1003.05737	-750.95575	-986.38538	877.51099	-764.98389	-1038.94519	872.86603	-742.99426	-1002.15863	810.1687	-735.28412	-916.995	958.16443	-1177.79419	-919.79138	952.16174	-920.78479	-1125.23328	1013.935	-1096.91687	-1133.96155	1012.1178	-983.14703	-1042.92419	661.19971	-1229.78833	-1117.62683	468.85587	-1204.51624	-1217.51331	299.97726	-1204.70984	-1261.38416	77.89551	-1176.56519	-1296.64502	53.36293	-1123.00708	-1113.16028	26.48135	-1208.6936	-935.03265	662.29083	-830.36145	-856.10406	469.88425	-858.57855	-837.83972	284.50092	-839.55341	-791.25928	95.09475	-858.70728	-799.00696	31.57581	-916.72198	-634.07416	74.91043	-826.17273	-1018.83087	1773.91724	-1002.19971	2845.25513	1034.13721	-3360.42065	NaN	NaN	NaN
5	0.04	-890.81885	1727.42603	-1072.19958	-912.1048	1703.12585	-929.0448	-1000.58679	1633.53479	-1101.94727	-1037.76733	1606.2804	-966.84454	-1056.70276	1503.7002	-1041.83289	-1126.60767	1233.63342	-1046.47314	-919.20795	1429.05066	-1039.53003	-880.13062	1252.5459	-1034.75195	-1131.23193	1333.86719	-989.51605	-962.73663	1481.31812	-1213.03528	-946.83929	1288.37903	-1312.62061	-922.50458	1150.53027	-1339.16943	-877.3158	1026.30164	-1353.23645	-797.07343	919.34546	-1314.47693	-835.45807	910.85938	-1355.66907	-796.758	857.66376	-1358.62012	-997.86023	1458.08545	-848.81757	-1054.89417	1267.52429	-779.62952	-1056.78992	1120.26746	-768.72504	-1034.13757	1001.74457	-748.72546	-982.28235	875.91882	-762.7533	-1035.09973	871.5946	-740.9317	-998.66254	808.60687	-733.2182	-909.90082	957.49854	-1175.39905	-911.76337	952.10852	-918.38928	-1117.82422	1012.91467	-1094.38794	-1126.60681	1011.27844	-980.6394	-1036.76501	660.867	-1228.15393	-1112.16919	468.92737	-1203.36536	-1213.98767	301.2326	-1203.90857	-1260.65637	79.65564	-1176.66553	-1296.10571	55.39728	-1123.1095	-1113.02991	26.45966	-1208.83105	-925.72058	662.35242	-827.66644	-849.38879	468.67856	-856.60449	-835.02136	282.51581	-839.16791	-792.60425	92.28331	-859.45953	-800.80902	29.49268	-917.97223	-636.00439	69.36838	-825.97333	-1013.07159	1773.20349	-998.53003	2845.83569	1034.21997	-3357.29712	NaN	NaN	NaN
6	0.05	-884.93921	1727.17566	-1068.39026	-906.17584	1702.41516	-925.15753	-994.12646	1632.85596	-1098.30811	-1031.37451	1605.23267	-963.33179	-1050.03381	1503.01917	-1038.60254	-1119.38477	1232.78906	-1043.76196	-912.31958	1428.50598	-1036.18274	-872.87024	1252.0979	-1031.85559	-1124.22205	1332.88635	-986.82825	-955.24841	1481.03125	-1209.578	-939.3717	1288.4989	-1309.12427	-915.3407	1150.32251	-1335.33093	-870.46124	1026.06494	-1349.33435	-790.53656	918.97968	-1310.35315	-828.90179	910.58386	-1351.76196	-790.25623	857.15521	-1354.87634	-991.9549	1457.16614	-845.52557	-1047.92944	1266.15295	-776.87164	-1050.54016	1118.9978	-766.33441	-1029.06628	1000.5274	-746.48993	-978.09546	874.37537	-760.29553	-1030.88928	870.41772	-738.73181	-994.94653	807.13611	-730.94452	-902.50287	956.91943	-1172.88403	-903.55737	952.2113	-915.83008	-1110.19995	1011.89227	-1091.5603	-1118.84814	1010.28186	-977.86395	-1030.34888	660.60034	-1226.37305	-1106.44019	469.12427	-1202.11536	-1210.35107	302.70395	-1203.0459	-1259.87964	81.60136	-1176.74158	-1295.49487	57.76316	-1123.20056	-1113.04041	26.30997	-1209.00391	-916.64185	662.04156	-825.08417	-843.40076	467.58923	-854.9115	-832.60468	280.40982	-838.78558	-794.02454	89.32184	-860.68854	-803.33679	26.3142	-919.37103	-638.60114	63.57874	-826.08502	-1007.31006	1772.31152	-994.63318	2845.8418	1034.38623	-3357.39771	NaN	NaN	NaN
7	0.06	-878.55115	1726.67004	-1063.86169	-900.17444	1701.78125	-921.17084	-987.62097	1632.12659	-1094.52551	-1024.57727	1604.02563	-959.72369	-1043.26453	1502.20532	-1035.2428	-1112.04919	1231.85681	-1040.80249	-905.31506	1427.94617	-1032.71521	-865.59863	1251.61938	-1028.63074	-1116.75061	1331.5575	-983.98846	-947.76031	1480.87854	-1206.0144	-931.87915	1288.1665	-1305.15674	-908.37219	1150.08398	-1331.31921	-863.81757	1025.7168	-1345.41833	-784.12079	918.33545	-1306.36548	-822.41266	910.0163	-1347.91162	-784.03424	856.62592	-1350.96545	-984.87866	1455.81921	-842.1911	-1041.63806	1265.41211	-773.96954	-1044.43762	1117.9209	-763.83801	-1023.87787	999.38831	-744.02728	-973.36237	872.91864	-757.6629	-1026.74817	869.15955	-736.35693	-990.66077	805.638	-728.52649	-894.86554	956.50177	-1170.20239	-895.0033	952.38757	-913.02875	-1102.31116	1010.83783	-1088.3927	-1110.86975	1009.22528	-974.76807	-1023.70825	660.40405	-1224.37561	-1100.46558	469.40179	-1200.78528	-1206.58533	304.38199	-1202.03992	-1259.01477	83.80244	-1176.91956	-1294.7627	60.38355	-1123.4668	-1112.88953	26.31962	-1209.14368	-908.0033	661.33881	-822.52142	-837.11414	465.79453	-852.90631	-830.66626	278.19943	-838.5	-795.66077	86.31982	-861.88507	-805.26471	23.37276	-920.09021	-640.9541	57.70855	-826.09399	-1001.43488	1771.01501	-990.5155	2845.05444	1034.16504	-3360.19214	NaN	NaN	NaN
